<?xml version="1.0" encoding="UTF-8"?> <svg xmlns="http://www.w3.org/2000/svg" width="660" height="660" viewBox="0 0 660 660" fill="none"><path fill-rule="evenodd" clip-rule="evenodd" d="M312.969 107.473C276.238 114.139 246.11 142.04 236.82 177.994L234.882 185.494L213.004 186.041C180.729 186.849 168.869 192.886 158.972 213.545C153.727 224.493 116.237 460.324 117.012 477.494C118.619 513.124 142.341 542.379 177.127 551.632C187.862 554.488 472.416 554.531 482.627 551.678C517.185 542.024 540.648 512.828 542.242 477.494C543.017 460.324 505.527 224.493 500.282 213.545C490.382 192.88 478.528 186.849 446.223 186.041L424.32 185.494L422.015 176.804C409.493 129.594 360.994 98.7586 312.969 107.473ZM342.373 139.577C364.617 144.171 382.359 159.976 390.19 182.173L391.538 185.994H329.627H267.716L269.064 182.173C280.129 150.811 310.718 133.038 342.373 139.577ZM464.642 220.284C467.262 221.669 469.681 223.94 470.768 226.034C472.751 229.855 510.627 466.252 510.627 474.806C510.627 496.19 493.174 516.908 471.736 520.973C464.337 522.376 194.917 522.376 187.518 520.973C166.078 516.907 148.627 496.19 148.627 474.803C148.627 466.226 186.493 229.874 188.481 226.043C189.573 223.94 191.987 221.672 194.612 220.284L198.942 217.994H329.627H460.312L464.642 220.284ZM243.077 251.345C224.013 259.995 235.018 306.851 262.497 334.03C315.802 386.755 405.558 360.697 423.26 287.357C428.832 264.27 423.737 250.494 409.627 250.494C399.446 250.494 394.822 255.565 393.557 268.116C389.33 310.046 355.829 336.379 316.835 328.421C287.9 322.516 268.926 300.14 265.697 268.116C264.251 253.768 254.186 246.305 243.077 251.345Z" fill="#1C1C1C"></path></svg> 